<mxfile host="app.diagrams.net" modified="2024-06-25T08:05:54.461Z" agent="Mozilla/5.0 (Macintosh; Intel Mac OS X 10_15_7) AppleWebKit/537.36 (KHTML, like Gecko) Chrome/126.0.0.0 Safari/537.36" etag="JjEw5VGfeagkGskz4flh" version="24.6.2" type="github">
  <diagram name="Page-1" id="WCSuS18ZcLkWK5BjLlO2">
    <mxGraphModel dx="1434" dy="703" grid="1" gridSize="10" guides="1" tooltips="1" connect="1" arrows="1" fold="1" page="1" pageScale="1" pageWidth="850" pageHeight="1100" math="0" shadow="0">
      <root>
        <mxCell id="0" />
        <mxCell id="1" parent="0" />
        <mxCell id="p7hRojnRqfnaJmvfmgiI-36" style="edgeStyle=orthogonalEdgeStyle;rounded=0;orthogonalLoop=1;jettySize=auto;html=1;entryX=0;entryY=0.5;entryDx=0;entryDy=0;" parent="1" source="p7hRojnRqfnaJmvfmgiI-1" target="p7hRojnRqfnaJmvfmgiI-3" edge="1">
          <mxGeometry relative="1" as="geometry" />
        </mxCell>
        <mxCell id="p7hRojnRqfnaJmvfmgiI-1" value="Pemohon" style="rounded=1;whiteSpace=wrap;html=1;" parent="1" vertex="1">
          <mxGeometry x="110" y="330" width="120" height="60" as="geometry" />
        </mxCell>
        <mxCell id="p7hRojnRqfnaJmvfmgiI-38" style="edgeStyle=orthogonalEdgeStyle;rounded=0;orthogonalLoop=1;jettySize=auto;html=1;entryX=0;entryY=0.5;entryDx=0;entryDy=0;" parent="1" source="p7hRojnRqfnaJmvfmgiI-3" target="p7hRojnRqfnaJmvfmgiI-4" edge="1">
          <mxGeometry relative="1" as="geometry" />
        </mxCell>
        <mxCell id="p7hRojnRqfnaJmvfmgiI-3" value="Back Office&lt;br&gt;&lt;div&gt;&lt;span style=&quot;background-color: initial;&quot;&gt;Crosscheck Berkas&lt;br&gt;&lt;/span&gt;&amp;amp; Buat Draft Permintaan Rekomendasi&lt;br&gt;&lt;/div&gt;" style="rounded=1;whiteSpace=wrap;html=1;" parent="1" vertex="1">
          <mxGeometry x="280" y="265" width="205" height="70" as="geometry" />
        </mxCell>
        <mxCell id="p7hRojnRqfnaJmvfmgiI-40" style="edgeStyle=orthogonalEdgeStyle;rounded=0;orthogonalLoop=1;jettySize=auto;html=1;entryX=0;entryY=0.5;entryDx=0;entryDy=0;" parent="1" source="p7hRojnRqfnaJmvfmgiI-4" target="p7hRojnRqfnaJmvfmgiI-39" edge="1">
          <mxGeometry relative="1" as="geometry" />
        </mxCell>
        <mxCell id="p7hRojnRqfnaJmvfmgiI-4" value="&lt;div&gt;Verifikator&lt;br&gt;Permintaan Rekomendasi&lt;/div&gt;" style="rounded=1;whiteSpace=wrap;html=1;" parent="1" vertex="1">
          <mxGeometry x="510" y="270" width="120" height="60" as="geometry" />
        </mxCell>
        <mxCell id="p7hRojnRqfnaJmvfmgiI-16" style="edgeStyle=orthogonalEdgeStyle;rounded=0;orthogonalLoop=1;jettySize=auto;html=1;entryX=0;entryY=0.5;entryDx=0;entryDy=0;" parent="1" source="p7hRojnRqfnaJmvfmgiI-5" target="p7hRojnRqfnaJmvfmgiI-8" edge="1">
          <mxGeometry relative="1" as="geometry" />
        </mxCell>
        <mxCell id="p7hRojnRqfnaJmvfmgiI-5" value="Back Office&lt;div&gt;Menindaklanjuti Kajian Teknis/ Membuat Draft Izin&lt;/div&gt;" style="rounded=1;whiteSpace=wrap;html=1;" parent="1" vertex="1">
          <mxGeometry x="960" y="275" width="150" height="50" as="geometry" />
        </mxCell>
        <mxCell id="p7hRojnRqfnaJmvfmgiI-15" style="edgeStyle=orthogonalEdgeStyle;rounded=0;orthogonalLoop=1;jettySize=auto;html=1;entryX=0;entryY=0.5;entryDx=0;entryDy=0;" parent="1" source="p7hRojnRqfnaJmvfmgiI-7" target="p7hRojnRqfnaJmvfmgiI-5" edge="1">
          <mxGeometry relative="1" as="geometry" />
        </mxCell>
        <mxCell id="p7hRojnRqfnaJmvfmgiI-7" value="OPD Melakukan Kajian Teknis" style="rounded=1;whiteSpace=wrap;html=1;" parent="1" vertex="1">
          <mxGeometry x="810" y="270" width="120" height="60" as="geometry" />
        </mxCell>
        <mxCell id="p7hRojnRqfnaJmvfmgiI-17" style="edgeStyle=orthogonalEdgeStyle;rounded=0;orthogonalLoop=1;jettySize=auto;html=1;entryX=-0.017;entryY=0.4;entryDx=0;entryDy=0;entryPerimeter=0;" parent="1" source="p7hRojnRqfnaJmvfmgiI-8" target="p7hRojnRqfnaJmvfmgiI-10" edge="1">
          <mxGeometry relative="1" as="geometry">
            <mxPoint x="1420" y="300" as="targetPoint" />
          </mxGeometry>
        </mxCell>
        <mxCell id="p7hRojnRqfnaJmvfmgiI-8" value="&lt;div&gt;Verifikator&lt;br&gt;Izin&lt;/div&gt;" style="rounded=1;whiteSpace=wrap;html=1;" parent="1" vertex="1">
          <mxGeometry x="1140" y="270" width="120" height="60" as="geometry" />
        </mxCell>
        <mxCell id="p7hRojnRqfnaJmvfmgiI-30" style="edgeStyle=orthogonalEdgeStyle;rounded=0;orthogonalLoop=1;jettySize=auto;html=1;exitX=0.5;exitY=0;exitDx=0;exitDy=0;" parent="1" source="p7hRojnRqfnaJmvfmgiI-10" edge="1">
          <mxGeometry relative="1" as="geometry">
            <mxPoint x="140" y="330" as="targetPoint" />
            <mxPoint x="1490.030303030303" y="270" as="sourcePoint" />
            <Array as="points">
              <mxPoint x="1400" y="250" />
              <mxPoint x="141" y="250" />
              <mxPoint x="141" y="330" />
            </Array>
          </mxGeometry>
        </mxCell>
        <mxCell id="p7hRojnRqfnaJmvfmgiI-37" style="edgeStyle=orthogonalEdgeStyle;rounded=0;orthogonalLoop=1;jettySize=auto;html=1;" parent="1" source="p7hRojnRqfnaJmvfmgiI-10" target="p7hRojnRqfnaJmvfmgiI-1" edge="1">
          <mxGeometry relative="1" as="geometry">
            <Array as="points">
              <mxPoint x="1510" y="430" />
              <mxPoint x="170" y="430" />
            </Array>
          </mxGeometry>
        </mxCell>
        <mxCell id="p7hRojnRqfnaJmvfmgiI-10" value="Persetujuan Kadis" style="rounded=1;whiteSpace=wrap;html=1;" parent="1" vertex="1">
          <mxGeometry x="1310" y="275" width="120" height="60" as="geometry" />
        </mxCell>
        <mxCell id="p7hRojnRqfnaJmvfmgiI-41" style="edgeStyle=orthogonalEdgeStyle;rounded=0;orthogonalLoop=1;jettySize=auto;html=1;entryX=0;entryY=0.5;entryDx=0;entryDy=0;" parent="1" source="p7hRojnRqfnaJmvfmgiI-39" target="p7hRojnRqfnaJmvfmgiI-7" edge="1">
          <mxGeometry relative="1" as="geometry" />
        </mxCell>
        <mxCell id="p7hRojnRqfnaJmvfmgiI-39" value="&lt;div&gt;Persetujuan Kadis&amp;nbsp;&lt;br&gt;Permintaan Rekomendasi&lt;/div&gt;" style="rounded=1;whiteSpace=wrap;html=1;" parent="1" vertex="1">
          <mxGeometry x="660" y="270" width="120" height="60" as="geometry" />
        </mxCell>
        <mxCell id="miA6chmxCOdz28sfvFwR-1" value="ALUR PROSES IZIN SEKTOR PERHUBUNGAN" style="text;html=1;align=center;verticalAlign=middle;whiteSpace=wrap;rounded=0;fontSize=23;" vertex="1" parent="1">
          <mxGeometry x="480" y="170" width="660" height="40" as="geometry" />
        </mxCell>
      </root>
    </mxGraphModel>
  </diagram>
</mxfile>
